<svg xmlns="http://www.w3.org/2000/svg" fill="none" viewBox="0 0 375 452">
  <defs>
    <linearGradient id="a" x1="-41" x2="470.3" y1="155.5" y2="155.5" gradientUnits="userSpaceOnUse">
      <stop stop-color="#6DC0D2"/>
      <stop offset="1" stop-color="#86C985"/>
    </linearGradient>
    <linearGradient id="b" x1="-41" x2="470.3" y1="129.6" y2="129.6" gradientUnits="userSpaceOnUse">
      <stop stop-color="#6DC0D2"/>
      <stop offset="1" stop-color="#86C985"/>
    </linearGradient>
  </defs>
  <path fill="url(#a)" d="M112 429c-84-25-130-18-143-11l-10-558h493l14 415c2 8-7 40-62 109-70 86-188 76-292 45Z"/>
  <path fill="#fff" fill-opacity=".5" d="M112 429c-84-25-130-18-143-11l-10-558h493l14 415c2 8-7 40-62 109-70 86-188 76-292 45Z"/>
  <path fill="url(#b)" d="M112 415c-84-25-130-11-143-4l-10-581h493l14 415c2-2-7 30-62 99-70 86-188 102-292 71Z"/>
  <path stroke="#fff" stroke-opacity=".1" d="M-4 417c-3-25 25-97 158-83 191 21 271-76 284-219s43-83 41-150c-1-47-90-141-90-141"/>
  <path stroke="#fff" stroke-opacity=".1" d="M-43 349c-3-25 25-97 158-83 191 21 271-76 284-219s43-83 41-150c-1-47-90-141-90-141"/>
  <path stroke="#fff" stroke-opacity=".1" d="M-92 266c-3-25 25-97 158-83 191 21 271-76 284-219s43-83 41-150c-1-47-90-141-90-141"/>
  <path stroke="#fff" stroke-opacity=".1" d="M-141 183c-3-25 25-97 158-83 191 21 271-76 284-219s43-83 41-150c-1-47-90-141-90-141"/>
</svg>
