<svg xmlns="http://www.w3.org/2000/svg" fill="none" viewBox="0 0 375 376">
<defs>
    <linearGradient id="a" x1="113.6" x2="216.6" y1="279.1" y2="11.6" gradientUnits="userSpaceOnUse">
      <stop stop-color="#2B3582"/>
      <stop offset="1" stop-color="#150E42"/>
    </linearGradient>
    <linearGradient id="b" x1="147.6" x2="185.9" y1="218.4" y2="-100" gradientUnits="userSpaceOnUse">
      <stop stop-color="#53D8FF"/>
      <stop offset="1" stop-color="#3840F7"/>
    </linearGradient>
    <linearGradient id="c" x1="154.4" x2="153.8" y1="15.8" y2="56.6" gradientUnits="userSpaceOnUse">
      <stop stop-color="#8D55D1"/>
      <stop offset="1" stop-color="#1C2873"/>
    </linearGradient>
    <linearGradient id="d" x1="79.4" x2="79.4" y1="112.8" y2="290.5" gradientUnits="userSpaceOnUse">
      <stop stop-color="#C32B78"/>
      <stop offset="1" stop-color="#593092"/>
    </linearGradient>
    <linearGradient id="e" x1="100.1" x2="101.4" y1="82.5" y2="128.3" gradientUnits="userSpaceOnUse">
      <stop stop-color="#FDF53F"/>
      <stop offset="1" stop-color="#D93C65"/>
    </linearGradient>
    <linearGradient id="f" x1="120.8" x2="120.8" y1="113.2" y2="291.8" gradientUnits="userSpaceOnUse">
      <stop stop-color="#C32B78"/>
      <stop offset="1" stop-color="#593092"/>
    </linearGradient>
    <linearGradient id="g" x1="141.5" x2="142.8" y1="82.5" y2="128.7" gradientUnits="userSpaceOnUse">
      <stop stop-color="#FDF53F"/>
      <stop offset="1" stop-color="#D93C65"/>
    </linearGradient>
    <linearGradient id="h" x1="165.3" x2="165.3" y1="113.2" y2="291.8" gradientUnits="userSpaceOnUse">
      <stop stop-color="#C32B78"/>
      <stop offset="1" stop-color="#593092"/>
    </linearGradient>
    <linearGradient id="i" x1="186" x2="187.3" y1="82.4" y2="129" gradientUnits="userSpaceOnUse">
      <stop stop-color="#FDF53F"/>
      <stop offset="1" stop-color="#D93C65"/>
    </linearGradient>
    <linearGradient id="j" x1="206.7" x2="206.7" y1="113.2" y2="291.8" gradientUnits="userSpaceOnUse">
      <stop stop-color="#C32B78"/>
      <stop offset="1" stop-color="#593092"/>
    </linearGradient>
    <linearGradient id="k" x1="227.4" x2="228.7" y1="82.3" y2="129" gradientUnits="userSpaceOnUse">
      <stop stop-color="#FDF53F"/>
      <stop offset="1" stop-color="#D93C65"/>
    </linearGradient>
    <linearGradient id="l" x1="70.1" x2="69.9" y1="89.3" y2="142.6" gradientUnits="userSpaceOnUse">
      <stop stop-color="#C32B78"/>
      <stop offset="1" stop-color="#593092"/>
    </linearGradient>
    <linearGradient id="m" x1="116.8" x2="78.8" y1="-20.5" y2="186.6" gradientUnits="userSpaceOnUse">
      <stop stop-color="#FDF53F"/>
      <stop offset="1" stop-color="#D93C65"/>
    </linearGradient>
    <linearGradient id="n" x1="117.6" x2="117.4" y1="89.3" y2="142.6" gradientUnits="userSpaceOnUse">
      <stop stop-color="#C32B78"/>
      <stop offset="1" stop-color="#593092"/>
    </linearGradient>
    <linearGradient id="o" x1="162.7" x2="124.8" y1="-12.1" y2="195" gradientUnits="userSpaceOnUse">
      <stop stop-color="#FDF53F"/>
      <stop offset="1" stop-color="#D93C65"/>
    </linearGradient>
    <linearGradient id="p" x1="165.1" x2="164.9" y1="89.3" y2="142.6" gradientUnits="userSpaceOnUse">
      <stop stop-color="#C32B78"/>
      <stop offset="1" stop-color="#593092"/>
    </linearGradient>
    <linearGradient id="q" x1="208.7" x2="170.7" y1="-3.7" y2="203.4" gradientUnits="userSpaceOnUse">
      <stop stop-color="#FDF53F"/>
      <stop offset="1" stop-color="#D93C65"/>
    </linearGradient>
    <linearGradient id="r" x1="213" x2="212.7" y1="89.3" y2="142.6" gradientUnits="userSpaceOnUse">
      <stop stop-color="#C32B78"/>
      <stop offset="1" stop-color="#593092"/>
    </linearGradient>
    <linearGradient id="s" x1="254.8" x2="216.9" y1="4.8" y2="211.9" gradientUnits="userSpaceOnUse">
      <stop stop-color="#FDF53F"/>
      <stop offset="1" stop-color="#D93C65"/>
    </linearGradient>
    <linearGradient id="t" x1="153.8" x2="148.1" y1="229.7" y2="327.8" gradientUnits="userSpaceOnUse">
      <stop stop-color="#C32B78"/>
      <stop offset="1" stop-color="#593092"/>
    </linearGradient>
    <linearGradient id="u" x1="284.6" x2="308.5" y1="176.1" y2="241.6" gradientUnits="userSpaceOnUse">
      <stop stop-color="#41A362"/>
      <stop offset="1" stop-color="#204F2E"/>
    </linearGradient>
    <linearGradient id="v" x1="285.2" x2="302.6" y1="193.9" y2="241.5" gradientUnits="userSpaceOnUse">
      <stop stop-color="#41A362"/>
      <stop offset="1" stop-color="#204F2E"/>
    </linearGradient>
    <linearGradient id="w" x1="254.9" x2="249.1" y1="135" y2="219.3" gradientUnits="userSpaceOnUse">
      <stop stop-color="#53D8FF"/>
      <stop offset="1" stop-color="#3840F7"/>
    </linearGradient>
    <linearGradient id="x" x1="231" x2="272.1" y1="173.5" y2="237.5" gradientUnits="userSpaceOnUse">
      <stop stop-color="#53D8FF"/>
      <stop offset="1" stop-color="#3840F7"/>
    </linearGradient>
    <linearGradient id="y" x1="303.2" x2="236.2" y1="126.3" y2="325.8" gradientUnits="userSpaceOnUse">
      <stop stop-color="#FDF53F"/>
      <stop offset=".7" stop-color="#E57C58"/>
      <stop offset="1" stop-color="#D93C65"/>
    </linearGradient>
    <linearGradient id="z" x1="315.6" x2="242.3" y1="167" y2="204.2" gradientUnits="userSpaceOnUse">
      <stop stop-color="#FDF53F"/>
      <stop offset=".7" stop-color="#E57C58"/>
      <stop offset="1" stop-color="#D93C65"/>
    </linearGradient>
    <linearGradient id="A" x1="317.9" x2="244.5" y1="177.8" y2="215.1" gradientUnits="userSpaceOnUse">
      <stop stop-color="#FDF53F"/>
      <stop offset=".7" stop-color="#E57C58"/>
      <stop offset="1" stop-color="#D93C65"/>
    </linearGradient>
    <linearGradient id="B" x1="301.3" x2="246.7" y1="202" y2="219" gradientUnits="userSpaceOnUse">
      <stop stop-color="#FDF53F"/>
      <stop offset=".7" stop-color="#E57C58"/>
      <stop offset="1" stop-color="#D93C65"/>
    </linearGradient>
    <linearGradient id="C" x1="302.9" x2="248.3" y1="212.4" y2="229.5" gradientUnits="userSpaceOnUse">
      <stop stop-color="#FDF53F"/>
      <stop offset=".7" stop-color="#E57C58"/>
      <stop offset="1" stop-color="#D93C65"/>
    </linearGradient>
    <linearGradient id="D" x1="259.2" x2="132" y1="155.5" y2="374.3" gradientUnits="userSpaceOnUse">
      <stop stop-color="#2C759E"/>
      <stop offset="1" stop-color="#051042"/>
    </linearGradient>
    <linearGradient id="E" x1="237.1" x2="191.4" y1="204.2" y2="282.9" gradientUnits="userSpaceOnUse">
      <stop stop-color="#CE1567"/>
      <stop offset="1" stop-color="#7A1DBC"/>
    </linearGradient>
    <linearGradient id="F" x1="231.2" x2="222.2" y1="161.5" y2="176.9" gradientUnits="userSpaceOnUse">
      <stop stop-color="#CE1567"/>
      <stop offset="1" stop-color="#7A1DBC"/>
    </linearGradient>
    <linearGradient id="G" x1="231.5" x2="213.4" y1="149.6" y2="180.8" gradientUnits="userSpaceOnUse">
      <stop stop-color="#CE1567"/>
      <stop offset="1" stop-color="#7A1DBC"/>
    </linearGradient>
    <linearGradient id="H" x1="220.1" x2="246.2" y1="165.1" y2="203.3" gradientUnits="userSpaceOnUse">
      <stop stop-color="#FDF53F"/>
      <stop offset="1" stop-color="#D93C65"/>
    </linearGradient>
    <linearGradient id="I" x1="252.5" x2="247.2" y1="190.7" y2="197.3" gradientUnits="userSpaceOnUse">
      <stop stop-color="#FDF53F"/>
      <stop offset="1" stop-color="#D93C65"/>
    </linearGradient>
    <linearGradient id="J" x1="247.3" x2="262.9" y1="188" y2="188" gradientUnits="userSpaceOnUse">
      <stop stop-color="#152C19"/>
      <stop offset="1" stop-color="#397851"/>
    </linearGradient>
    <linearGradient id="K" x1="243.9" x2="249.3" y1="191.7" y2="191.7" gradientUnits="userSpaceOnUse">
      <stop stop-color="#E40045"/>
      <stop offset="1" stop-color="#5C0E16"/>
    </linearGradient>
    <linearGradient id="L" x1="307.8" x2="176.2" y1="129.7" y2="319.3" gradientUnits="userSpaceOnUse">
      <stop stop-color="#FDF53F"/>
      <stop offset="1" stop-color="#D93C65"/>
    </linearGradient>
    <linearGradient id="M" x1="331.1" x2="179.9" y1="185.1" y2="379.6" gradientUnits="userSpaceOnUse">
      <stop stop-color="#FDF53F"/>
      <stop offset="1" stop-color="#D93C65"/>
    </linearGradient>
    <linearGradient id="N" x1="109.7" x2="83" y1="176.9" y2="219.7" gradientUnits="userSpaceOnUse">
      <stop stop-color="#F9B776"/>
      <stop offset="1" stop-color="#F47960"/>
    </linearGradient>
    <linearGradient id="O" x1="499.7" x2="558.6" y1="712.8" y2="783.1" gradientUnits="userSpaceOnUse">
      <stop stop-color="#5C3B3E"/>
      <stop offset="1" stop-color="#593092"/>
    </linearGradient>
    <linearGradient id="P" x1="69.5" x2="49.6" y1="225.3" y2="281.1" gradientUnits="userSpaceOnUse">
      <stop stop-color="#A53D7B"/>
      <stop offset="1" stop-color="#D93C65"/>
    </linearGradient>
    <linearGradient id="Q" x1="76.8" x2="71.8" y1="206.5" y2="195.4" gradientUnits="userSpaceOnUse">
      <stop stop-color="#F9B776"/>
      <stop offset="1" stop-color="#F47960"/>
    </linearGradient>
    <linearGradient id="R" x1="77" x2="66.9" y1="179.5" y2="201.5" gradientUnits="userSpaceOnUse">
      <stop stop-color="#F9B776"/>
      <stop offset="1" stop-color="#F47960"/>
    </linearGradient>
    <linearGradient id="S" x1="509.7" x2="568.5" y1="704.5" y2="774.8" gradientUnits="userSpaceOnUse">
      <stop stop-color="#5F4043"/>
      <stop offset="1" stop-color="#966A57"/>
    </linearGradient>
    <linearGradient id="T" x1="72.3" x2="62.1" y1="177.3" y2="199.3" gradientUnits="userSpaceOnUse">
      <stop stop-color="#F9B776"/>
      <stop offset="1" stop-color="#F47960"/>
    </linearGradient>
    <linearGradient id="U" x1="48.7" x2="86" y1="345.1" y2="277.7" gradientUnits="userSpaceOnUse">
      <stop stop-color="#F9B776"/>
      <stop offset="1" stop-color="#F47960"/>
    </linearGradient>
    <linearGradient id="V" x1="56.7" x2="67.8" y1="321.3" y2="321.2" gradientUnits="userSpaceOnUse">
      <stop stop-color="#2B3582"/>
      <stop offset="1" stop-color="#150E42"/>
    </linearGradient>
    <linearGradient id="W" x1="91.2" x2="34.6" y1="295.1" y2="313.8" gradientUnits="userSpaceOnUse">
      <stop stop-color="#F9B776"/>
      <stop offset="1" stop-color="#F47960"/>
    </linearGradient>
    <linearGradient id="X" x1="67" x2="80.2" y1="323.2" y2="323.1" gradientUnits="userSpaceOnUse">
      <stop stop-color="#2B3582"/>
      <stop offset="1" stop-color="#150E42"/>
    </linearGradient>
    <linearGradient id="Y" x1="110.6" x2="53.3" y1="205.4" y2="287.3" gradientUnits="userSpaceOnUse">
      <stop stop-color="#53D8FF"/>
      <stop offset="1" stop-color="#2B3582"/>
    </linearGradient>
    <linearGradient id="Z" x1="52.2" x2="105.7" y1="241.2" y2="161.8" gradientUnits="userSpaceOnUse">
      <stop stop-color="#F9B776"/>
      <stop offset="1" stop-color="#F47960"/>
    </linearGradient>
  </defs>
  <path fill="#fff" d="m297 287-16 13c-50 37-111 26-124 23-18-3-55-11-81-42-40-47-34-120-3-169 6-9 35-58 96-66 37-5 80 5 111 31 66 54 61 164 17 210Z" opacity=".3"/>
  <path fill="url(#a)" d="M231 301c0 5-5 9-10 9l-131 1c-6 0-10-4-10-10L74 58c-1-6 4-11 10-11l139 1c6 0 10 4 10 10l-2 243Z"/>
  <path fill="url(#b)" d="M219 72c0-5-5-10-10-10H98c-5 0-10 4-10 10l5 207c0 5 4 9 10 9h105c5 0 9-4 9-9l2-207Z"/>
  <path fill="url(#c)" d="m170 54-2 2h-29l-2-2 2-2h29l2 2Z"/>
  <path fill="url(#d)" d="m84 62-2 1-24 38h24l19-39H84Z"/>
  <path fill="url(#e)" d="M106 101H82l19-39h17l-12 39Z"/>
  <path fill="url(#f)" d="M130 101h-24l12-39h18l-6 39Z"/>
  <path fill="url(#g)" d="M153 101h-23l6-39h17v39Z"/>
  <path fill="url(#h)" d="M177 101h-24V62h18l6 39Z"/>
  <path fill="url(#i)" d="M201 101h-24l-6-39h18l12 39Z"/>
  <path fill="url(#j)" d="M225 101h-24l-12-39h17l19 39Z"/>
  <path fill="url(#k)" d="m224 63-1-1h-17l19 39h24l-25-38Z"/>
  <path fill="url(#l)" d="M58 101v6c0 6 6 10 12 10 7 0 12-4 12-10v-6H58Z"/>
  <path fill="url(#m)" d="M82 101v6c0 6 5 10 12 10 6 0 12-4 12-10v-6H82Z"/>
  <path fill="url(#n)" d="M106 101v6c0 6 5 10 12 10 6 0 12-4 12-10v-6h-24Z"/>
  <path fill="url(#o)" d="M130 101v6c0 6 5 10 11 10h1c6 0 11-4 11-10v-6h-23Z"/>
  <path fill="url(#p)" d="M153 101v6c0 6 6 10 12 10 7 0 12-4 12-10v-6h-24Z"/>
  <path fill="url(#q)" d="M177 101v6c0 6 5 10 12 10s12-4 12-10v-6h-24Z"/>
  <path fill="url(#r)" d="M201 101v6c0 6 5 10 12 10s12-4 12-10v-6h-24Z"/>
  <path fill="url(#s)" d="M225 101v6c0 6 5 10 11 10h1c6 0 11-4 11-10v-6h-23Z"/>
  <path fill="url(#t)" d="M191 238c0 8-6 14-14 14h-47c-8 0-15-6-15-14v-1c0-7 7-14 15-14h47c8 0 14 7 14 14v1Z"/>
  <path fill="#fff" d="m132 230 4-1 5 1 2 3c0 2-1 3-3 4 2 0 3 2 3 4l-1 4-6 1h-4v-16Zm3 6h2c2 0 3-1 3-2 0-2-1-3-3-3l-2 1v4Zm0 8h2c2 0 3-1 3-3s-1-3-3-3h-2v6Zm14-15v10c0 3 1 5 4 5 2 0 3-2 3-5v-10h3v10c0 5-3 7-7 7-3 0-6-2-6-7v-10h3Zm17 17v-7l-5-10h3l2 5 2 3 1-3 2-5h4l-6 10v7h-3Zm25-98-2-1-67 1-2-5-1-1h-10l-1 2 1 1h8l14 45 2 2h47l2-1-2-2-45-1-4-11h50l2-2 8-26v-1Zm-51 47c-4 0-7 3-7 6 0 4 3 7 7 7s7-3 7-6c0-4-3-7-7-7Zm0 10c-2 0-3-2-3-4 0-1 1-3 3-3s3 2 3 4c0 1-1 3-3 3Zm31-10c-4 0-7 3-7 7s3 7 7 7c5 0 8-3 8-7s-3-7-8-7Zm0 10c-1 0-3-1-3-3s2-3 3-3c2 0 4 1 4 3s-2 3-4 3Z"/>
  <path fill="url(#u)" d="m268 253 1 2c4 2 9-11 20-20 13-11 23-9 27-19 1-5-1-7 2-12 3-8 9-7 12-13s0-18-6-23c-9-6-23 1-27 10-3 5-2 13-3 13-2 0-2-7-6-8-5-3-14 4-14 12-1 7 7 14 5 15h-2c-1 1-1 6 4 22 0 5-1 8-3 10-4 6-10 7-10 11Z"/>
  <path fill="url(#v)" d="M318 182a45 45 0 0 0-15 15l-2 5-1 3-1 2-2 6-1 1v1a142 142 0 0 1-4 8l-1 2v1l-1 2-1 1v1l-1 1-1 1-1 1v2l-2 2v1l-1 1-2 2-1 3-2 2-8 7 7-8 1-1 1-1 1-2 3-5 2-2v-1l1-2 1-1v-1l1-1v-1l5-10 4-10 1-3 1-3 3-4 1-2v-1l1-1 1-1 1-1 1-1 2-2 9-6Z"/>
  <path fill="url(#w)" d="M230 170h45l-6 65-38 2-1-67Z"/>
  <path fill="url(#x)" d="m230 174 45 1-6 65-38 1-1-67Z"/>
  <path fill="url(#y)" d="M294 212c-8 28-23 48-32 43-9-4-10-30-2-58s23-47 32-43 10 30 2 58Z"/>
  <path fill="url(#z)" d="M292 192c0 1-5-2-9-7-5-5-8-10-7-11 0-1 5 2 9 7 5 5 8 10 7 11Z"/>
  <path fill="url(#A)" d="M287 207c0 1-5-2-9-7-5-5-8-10-7-11 0-2 5 1 9 6 5 5 8 10 7 12Z"/>
  <path fill="url(#B)" d="M283 219c-1 2-6-1-10-6-5-5-8-10-7-12 1-1 5 2 10 7l7 11Z"/>
  <path fill="url(#C)" d="M277 232c-1 1-5-2-10-7l-7-11c1-1 6 2 10 7 5 5 8 10 7 11Z"/>
  <path fill="url(#D)" d="M232 185v-29h-10l-1 29c-1 1-6 5-6 7l-2 67c0 2 1 3 2 3 3 1 6 3 10 3l9-2 2-3 1-68s0-3-5-7Z"/>
  <path fill="url(#E)" d="M232 207h-12l-1 1-1 32 1 1h12l1-1 1-32-1-1Z"/>
  <path fill="url(#F)" d="M232 176h-11v-14h11v14Z"/>
  <path fill="url(#G)" d="M232 152h-10l-1 2v7l1 2h10l1-2v-7l-1-2Z"/>
  <path fill="url(#H)" d="M252 193h-6c-2-1-6-1-11 1-10 5-9 25 5 28 19 3 27-6 29-12 2-7-3-16-11-17h-6Z"/>
  <path fill="#fff" d="M239 196c1 0 5 1 2 4-3 4-5 10-4 14s-7-1-7-6c-1-5 4-12 9-12Z" opacity=".2"/>
  <path fill="url(#I)" d="M254 195c0 1-2 2-5 2s-5-1-5-2h10Z"/>
  <path fill="url(#J)" d="M247 195s-1-7 7-12c8-4 8-5 8-2 1 2 3 11-6 14-9 4-9 0-9 0Z"/>
  <path fill="#fff" d="M261 181c-1 2-7 11-13 15 0 0 7 1 11-3s3-10 2-12Z" opacity=".2"/>
  <path fill="url(#K)" d="M249 196v-2c0-3-1-8-4-7s3 4 4 9Z"/>
  <path fill="url(#L)" d="m229 246-3 45-1 11c-1 7-3 11-4 11-3 0-7-5-10-9l-3-5c-3-3 1-34 2-39l1-38c-1-1 2-15 2-15l4 4v1l6-4 3 4 3 34Z"/>
  <path fill="url(#M)" d="M321 303a10 10 0 0 1-10 10c-26 1-88 8-90 0s7-48 7-53l-2-48 4 1 1 1 10-5 8 5 11-5 9 5 8-3 7 3 9-5 6 5 9-5 5 5 5-5 1 5 2 89Z"/>
  <path fill="url(#N)" d="M107 188h-1l-4 5v1-1l-1-3-1 2-1 4c2 4 4 11-4 15-7 5-17-8-17-8l5 15s8 6 17-2 3-19 3-19 7-3 4-9Z"/>
  <path fill="url(#O)" d="M77 179s2-9-8-6c0 0-6-1-6 4 0 0-3 2-1 6 0 0-10-4-14 5s0 13 4 14c0 0-3 2-2 6 2 4 10 6 14 2 0 0 14 2 14-8 0 0 6-4-1-12-6-8 0-11 0-11Z"/>
  <path fill="url(#P)" d="M78 201c-2-1-9-2-15 3l-1 4c2 6 6 23 2 31 0 0 7 7 14 1 0 0 3-14 7-20 3-4-4-15-6-18l-1-1Z"/>
  <path fill="url(#Q)" d="m72 189-4 13s4 2 7-1l1-10-4-2Z"/>
  <path fill="url(#R)" d="M76 177s8 12 3 15c-4 3-10-5-10-5s-2-6 0-8 7-2 7-2Z"/>
  <path fill="url(#S)" d="M72 174s4 1 5 3c0 2-6 3-7 3l-2 7s-4-6-2-10c1-4 6-3 6-3Z"/>
  <path fill="url(#T)" d="M70 186s-3-3-4-1 3 4 4 3v-2Z"/>
  <path fill="url(#U)" d="m86 269 2 8-1 3-20 35-1 1-1 10 1 2-4-1-1-13h1l3-3 7-22c2-7 9-12 9-12l-1-3 6-5Z"/>
  <path fill="url(#V)" d="m57 322 3-5c0-2 1-4 2-3l1 10c-1 3 3 3 3 3l2 1-1 1h-5l-1-2-1-8-3 4v-1Z"/>
  <path fill="url(#W)" d="m74 274-1 36c0 4 1 14 5 17l-2 1-5-6-3-5 1-2v-2l-5-23c-1-4-1-10 3-14 3-4 7-2 7-2Z"/>
  <path fill="url(#X)" d="M70 330h-1l-1-7c0-1-2-6 0-6l7 10h3l2 1c1 1 0 2-1 2h-4l-2-2-4-6 1 8Z"/>
  <path fill="url(#Y)" d="M79 237v7l9 31v1c-3 1-12 4-24 3l-1-1-4-18c-2-9-4-19 6-25 5 2 9 3 14 2Z"/>
  <path fill="url(#Z)" d="M63 206s-10 8-13 19c-2 12 15 13 15 13s2-3 5-2 0-4-3-4-2 2-7 0c-4-2-7-8 5-17l1-2c2-6 1-10-3-7Z"/>
  <path fill="#61C2B1" d="M295 254c0 10-15 30-21 38-2 2-5 2-7 0-6-8-21-28-21-38 0-14 11-25 24-25 14 0 25 11 25 25Z"/>
  <path fill="#fff" d="M270 268c8 0 14-7 14-14 0-8-6-14-14-14-7 0-13 6-13 14 0 7 6 14 13 14Z"/>
  <path fill="#75CBDE" d="M270 282c2-11 9-14 8-24-2-11-12-14-12-24l1-5c-12 2-21 12-21 25 0 10 15 30 21 38 1 1 3 2 4 1l-1-11Z" opacity=".3"/>
  <path fill="#84BAB3" d="M270 309c3 0 6-2 6-5s-3-5-6-5c-2 0-5 2-5 5s3 5 5 5Z"/>
</svg>
